<svg xmlns="http://www.w3.org/2000/svg" xmlns:xlink="http://www.w3.org/1999/xlink" width="75" zoomAndPan="magnify" viewBox="0 0 56.25 56.249997" height="75" preserveAspectRatio="xMidYMid meet" version="1.0"><defs><clipPath id="6348b4dbcb"><path d="M 0 0 L 55.511719 0 L 55.511719 55.511719 L 0 55.511719 Z M 0 0 " clip-rule="nonzero"/></clipPath></defs><path fill="#ffffff" d="M 10.71875 40.195312 L 44.789062 40.195312 L 44.789062 15.3125 L 10.71875 15.3125 Z M 12.632812 38.28125 L 12.632812 18.285156 L 27.753906 28.925781 L 42.875 18.285156 L 42.875 38.28125 Z M 14.457031 17.226562 L 41.050781 17.226562 L 27.753906 26.585938 Z M 14.457031 17.226562 " fill-opacity="1" fill-rule="nonzero"/><g clip-path="url(#6348b4dbcb)"><path fill="#ffffff" d="M 27.753906 0 C 26.847656 0 25.9375 0.0429688 25.035156 0.132812 C 24.128906 0.222656 23.230469 0.355469 22.339844 0.535156 C 21.449219 0.710938 20.566406 0.929688 19.699219 1.195312 C 18.828125 1.460938 17.972656 1.765625 17.132812 2.113281 C 16.292969 2.460938 15.472656 2.847656 14.671875 3.277344 C 13.871094 3.707031 13.089844 4.171875 12.335938 4.675781 C 11.578125 5.183594 10.851562 5.722656 10.148438 6.300781 C 9.445312 6.875 8.773438 7.488281 8.128906 8.128906 C 7.488281 8.773438 6.875 9.445312 6.300781 10.148438 C 5.722656 10.851562 5.183594 11.578125 4.675781 12.335938 C 4.171875 13.089844 3.707031 13.871094 3.277344 14.671875 C 2.847656 15.472656 2.460938 16.292969 2.113281 17.132812 C 1.765625 17.972656 1.460938 18.828125 1.195312 19.699219 C 0.929688 20.566406 0.710938 21.449219 0.535156 22.339844 C 0.355469 23.230469 0.222656 24.128906 0.132812 25.035156 C 0.0429688 25.9375 0 26.847656 0 27.753906 C 0 28.664062 0.0429688 29.570312 0.132812 30.476562 C 0.222656 31.378906 0.355469 32.277344 0.535156 33.167969 C 0.710938 34.0625 0.929688 34.941406 1.195312 35.8125 C 1.460938 36.679688 1.765625 37.535156 2.113281 38.375 C 2.460938 39.214844 2.847656 40.035156 3.277344 40.839844 C 3.707031 41.640625 4.171875 42.417969 4.675781 43.175781 C 5.183594 43.929688 5.722656 44.660156 6.300781 45.363281 C 6.875 46.066406 7.488281 46.738281 8.128906 47.378906 C 8.773438 48.023438 9.445312 48.632812 10.148438 49.210938 C 10.851562 49.785156 11.578125 50.328125 12.335938 50.832031 C 13.089844 51.335938 13.871094 51.804688 14.671875 52.234375 C 15.472656 52.660156 16.292969 53.050781 17.132812 53.398438 C 17.972656 53.746094 18.828125 54.050781 19.699219 54.316406 C 20.566406 54.578125 21.449219 54.800781 22.339844 54.976562 C 23.230469 55.152344 24.128906 55.289062 25.035156 55.375 C 25.9375 55.464844 26.847656 55.511719 27.753906 55.511719 C 28.664062 55.511719 29.570312 55.464844 30.476562 55.375 C 31.378906 55.289062 32.277344 55.152344 33.167969 54.976562 C 34.0625 54.800781 34.941406 54.578125 35.8125 54.316406 C 36.679688 54.050781 37.535156 53.746094 38.375 53.398438 C 39.214844 53.050781 40.035156 52.660156 40.839844 52.234375 C 41.640625 51.804688 42.417969 51.335938 43.175781 50.832031 C 43.929688 50.328125 44.660156 49.785156 45.363281 49.210938 C 46.066406 48.632812 46.738281 48.023438 47.378906 47.378906 C 48.023438 46.738281 48.632812 46.066406 49.210938 45.363281 C 49.785156 44.660156 50.328125 43.929688 50.832031 43.175781 C 51.335938 42.417969 51.804688 41.640625 52.234375 40.839844 C 52.660156 40.035156 53.050781 39.214844 53.398438 38.375 C 53.746094 37.535156 54.050781 36.679688 54.316406 35.8125 C 54.578125 34.941406 54.800781 34.0625 54.976562 33.167969 C 55.152344 32.277344 55.289062 31.378906 55.375 30.476562 C 55.464844 29.570312 55.511719 28.664062 55.511719 27.753906 C 55.507812 26.847656 55.464844 25.941406 55.375 25.035156 C 55.285156 24.132812 55.148438 23.234375 54.972656 22.34375 C 54.792969 21.453125 54.570312 20.570312 54.308594 19.703125 C 54.042969 18.832031 53.738281 17.976562 53.390625 17.136719 C 53.039062 16.300781 52.652344 15.480469 52.222656 14.675781 C 51.792969 13.875 51.328125 13.097656 50.824219 12.34375 C 50.316406 11.585938 49.777344 10.859375 49.199219 10.15625 C 48.625 9.453125 48.015625 8.78125 47.371094 8.136719 C 46.730469 7.496094 46.054688 6.886719 45.355469 6.308594 C 44.652344 5.734375 43.921875 5.191406 43.167969 4.6875 C 42.410156 4.183594 41.632812 3.714844 40.832031 3.285156 C 40.03125 2.859375 39.210938 2.46875 38.371094 2.121094 C 37.53125 1.773438 36.675781 1.464844 35.808594 1.203125 C 34.9375 0.9375 34.058594 0.714844 33.167969 0.539062 C 32.277344 0.359375 31.378906 0.226562 30.472656 0.136719 C 29.570312 0.046875 28.664062 0 27.753906 0 Z M 27.753906 53.597656 C 26.910156 53.597656 26.0625 53.554688 25.222656 53.472656 C 24.378906 53.386719 23.542969 53.265625 22.714844 53.097656 C 21.882812 52.933594 21.0625 52.730469 20.253906 52.484375 C 19.445312 52.238281 18.648438 51.953125 17.867188 51.628906 C 17.085938 51.304688 16.320312 50.945312 15.574219 50.542969 C 14.828125 50.144531 14.101562 49.710938 13.398438 49.242188 C 12.695312 48.769531 12.015625 48.265625 11.363281 47.730469 C 10.707031 47.191406 10.082031 46.625 9.484375 46.027344 C 8.882812 45.429688 8.316406 44.800781 7.78125 44.148438 C 7.242188 43.492188 6.738281 42.816406 6.269531 42.109375 C 5.800781 41.40625 5.363281 40.683594 4.964844 39.9375 C 4.566406 39.191406 4.203125 38.425781 3.882812 37.644531 C 3.558594 36.863281 3.273438 36.066406 3.027344 35.257812 C 2.78125 34.445312 2.574219 33.625 2.410156 32.796875 C 2.246094 31.964844 2.121094 31.128906 2.039062 30.289062 C 1.957031 29.445312 1.914062 28.601562 1.914062 27.753906 C 1.914062 26.910156 1.957031 26.0625 2.039062 25.222656 C 2.121094 24.378906 2.246094 23.542969 2.410156 22.714844 C 2.574219 21.882812 2.78125 21.0625 3.027344 20.253906 C 3.273438 19.445312 3.558594 18.648438 3.882812 17.867188 C 4.203125 17.085938 4.566406 16.320312 4.964844 15.574219 C 5.363281 14.828125 5.800781 14.101562 6.269531 13.398438 C 6.738281 12.695312 7.242188 12.015625 7.78125 11.363281 C 8.316406 10.707031 8.882812 10.082031 9.484375 9.484375 C 10.082031 8.882812 10.707031 8.316406 11.363281 7.78125 C 12.015625 7.242188 12.695312 6.738281 13.398438 6.269531 C 14.101562 5.800781 14.828125 5.363281 15.574219 4.964844 C 16.320312 4.566406 17.085938 4.203125 17.867188 3.882812 C 18.648438 3.558594 19.445312 3.273438 20.253906 3.027344 C 21.0625 2.78125 21.882812 2.574219 22.714844 2.410156 C 23.542969 2.246094 24.378906 2.121094 25.222656 2.039062 C 26.0625 1.957031 26.910156 1.914062 27.753906 1.914062 C 28.601562 1.914062 29.445312 1.957031 30.289062 2.039062 C 31.128906 2.121094 31.964844 2.246094 32.796875 2.410156 C 33.625 2.574219 34.445312 2.78125 35.257812 3.027344 C 36.066406 3.273438 36.863281 3.558594 37.644531 3.882812 C 38.425781 4.203125 39.191406 4.566406 39.9375 4.964844 C 40.683594 5.363281 41.40625 5.800781 42.109375 6.269531 C 42.816406 6.738281 43.492188 7.242188 44.148438 7.78125 C 44.800781 8.316406 45.429688 8.882812 46.027344 9.484375 C 46.625 10.082031 47.191406 10.707031 47.730469 11.363281 C 48.265625 12.015625 48.769531 12.695312 49.242188 13.398438 C 49.710938 14.101562 50.144531 14.828125 50.542969 15.574219 C 50.945312 16.320312 51.304688 17.085938 51.628906 17.867188 C 51.953125 18.648438 52.238281 19.445312 52.484375 20.253906 C 52.730469 21.0625 52.933594 21.882812 53.097656 22.714844 C 53.265625 23.542969 53.386719 24.378906 53.472656 25.222656 C 53.554688 26.0625 53.597656 26.910156 53.597656 27.753906 C 53.59375 28.601562 53.550781 29.445312 53.46875 30.285156 C 53.386719 31.128906 53.261719 31.964844 53.09375 32.792969 C 52.929688 33.625 52.722656 34.445312 52.476562 35.253906 C 52.230469 36.0625 51.945312 36.859375 51.621094 37.640625 C 51.296875 38.421875 50.933594 39.183594 50.535156 39.929688 C 50.136719 40.675781 49.703125 41.402344 49.230469 42.105469 C 48.761719 42.808594 48.257812 43.488281 47.722656 44.140625 C 47.183594 44.792969 46.617188 45.421875 46.019531 46.019531 C 45.421875 46.617188 44.792969 47.183594 44.140625 47.722656 C 43.488281 48.257812 42.808594 48.761719 42.105469 49.230469 C 41.402344 49.703125 40.675781 50.136719 39.929688 50.535156 C 39.183594 50.933594 38.421875 51.296875 37.640625 51.621094 C 36.859375 51.945312 36.0625 52.230469 35.253906 52.476562 C 34.445312 52.722656 33.625 52.929688 32.792969 53.09375 C 31.964844 53.261719 31.128906 53.386719 30.285156 53.46875 C 29.445312 53.550781 28.601562 53.59375 27.753906 53.597656 Z M 27.753906 53.597656 " fill-opacity="1" fill-rule="nonzero"/></g></svg>