<svg xmlns="http://www.w3.org/2000/svg" xmlns:xlink="http://www.w3.org/1999/xlink" width="75" zoomAndPan="magnify" viewBox="0 0 56.25 56.249997" height="75" preserveAspectRatio="xMidYMid meet" version="1.0"><defs><clipPath id="28ecfa8ef1"><path d="M 14.640625 0 L 40.546875 0 L 40.546875 55.511719 L 14.640625 55.511719 Z M 14.640625 0 " clip-rule="nonzero"/></clipPath></defs><g clip-path="url(#28ecfa8ef1)"><path fill="#ffffff" d="M 34.570312 9.207031 L 40.546875 9.207031 L 40.546875 0.0820312 L 32.914062 0.0820312 L 32.914062 0.117188 C 22.882812 0.492188 20.8125 6.179688 20.640625 12.195312 L 20.617188 12.195312 L 20.617188 18.527344 L 14.640625 18.527344 L 14.640625 27.660156 L 20.617188 27.660156 L 20.617188 55.425781 L 31.339844 55.425781 L 31.339844 27.660156 L 39.027344 27.660156 L 40.546875 18.527344 L 31.339844 18.527344 L 31.339844 12.859375 C 31.339844 10.847656 32.671875 9.207031 34.570312 9.207031 Z M 34.570312 9.207031 " fill-opacity="1" fill-rule="nonzero"/></g></svg>