<svg xmlns="http://www.w3.org/2000/svg" xmlns:xlink="http://www.w3.org/1999/xlink" width="75" zoomAndPan="magnify" viewBox="0 0 56.25 56.249997" height="75" preserveAspectRatio="xMidYMid meet" version="1.0"><defs><clipPath id="d7974a49c8"><path d="M 0 0 L 55.511719 0 L 55.511719 55.511719 L 0 55.511719 Z M 0 0 " clip-rule="nonzero"/></clipPath></defs><path fill="#ffffff" d="M 27.777344 13.117188 L 27.777344 13.113281 C 27.746094 13.113281 27.714844 13.113281 27.6875 13.113281 C 27.65625 13.113281 27.625 13.113281 27.597656 13.113281 L 27.597656 13.117188 C 21.457031 13.214844 16.511719 18.214844 16.511719 24.378906 C 16.511719 32.679688 26.257812 40.5625 27.6875 41.679688 C 29.113281 40.5625 38.863281 32.679688 38.863281 24.378906 C 38.863281 18.214844 33.914062 13.214844 27.777344 13.117188 Z M 27.777344 29.222656 C 24.566406 29.222656 21.960938 26.621094 21.960938 23.410156 C 21.960938 20.199219 24.566406 17.59375 27.777344 17.59375 C 30.988281 17.59375 33.59375 20.199219 33.59375 23.410156 C 33.59375 26.621094 30.988281 29.222656 27.777344 29.222656 Z M 27.777344 29.222656 " fill-opacity="1" fill-rule="nonzero"/><g clip-path="url(#d7974a49c8)"><path fill="#ffffff" d="M 27.761719 55.492188 C 12.460938 55.492188 0.015625 43.046875 0.015625 27.746094 C 0.015625 12.445312 12.460938 0 27.761719 0 C 43.0625 0 55.511719 12.445312 55.511719 27.746094 C 55.511719 43.046875 43.0625 55.492188 27.761719 55.492188 Z M 27.761719 2.734375 C 13.96875 2.734375 2.75 13.953125 2.75 27.746094 C 2.75 41.535156 13.96875 52.757812 27.761719 52.757812 C 41.550781 52.757812 52.773438 41.535156 52.773438 27.746094 C 52.773438 13.953125 41.550781 2.734375 27.761719 2.734375 Z M 27.761719 2.734375 " fill-opacity="1" fill-rule="nonzero"/></g></svg>