<svg xmlns="http://www.w3.org/2000/svg" xmlns:xlink="http://www.w3.org/1999/xlink" width="75" zoomAndPan="magnify" viewBox="0 0 56.25 56.249997" height="75" preserveAspectRatio="xMidYMid meet" version="1.0"><defs><clipPath id="4611bb4670"><path d="M 0 0 L 55.511719 0 L 55.511719 55.511719 L 0 55.511719 Z M 0 0 " clip-rule="nonzero"/></clipPath></defs><g clip-path="url(#4611bb4670)"><path fill="#ffffff" d="M 27.765625 0 C 35.433594 0 42.371094 3.109375 47.394531 8.132812 C 52.421875 13.152344 55.527344 20.097656 55.527344 27.765625 C 55.527344 35.425781 52.421875 42.371094 47.394531 47.394531 C 42.371094 52.421875 35.433594 55.527344 27.765625 55.527344 C 20.097656 55.527344 13.152344 52.421875 8.132812 47.394531 C 3.109375 42.371094 0 35.425781 0 27.765625 C 0 20.097656 3.109375 13.152344 8.132812 8.132812 C 13.152344 3.109375 20.097656 0 27.765625 0 Z M 46.265625 9.257812 C 41.53125 4.527344 34.992188 1.597656 27.765625 1.597656 C 20.539062 1.597656 13.996094 4.527344 9.257812 9.257812 C 4.527344 13.996094 1.597656 20.539062 1.597656 27.765625 C 1.597656 34.992188 4.527344 41.53125 9.257812 46.265625 C 13.996094 51 20.539062 53.929688 27.765625 53.929688 C 34.992188 53.929688 41.53125 51 46.265625 46.265625 C 51 41.53125 53.929688 34.992188 53.929688 27.765625 C 53.929688 20.539062 51 13.996094 46.265625 9.257812 Z M 46.265625 9.257812 " fill-opacity="1" fill-rule="nonzero"/></g><path fill="#ffffff" d="M 21.109375 24.992188 C 21.71875 26.757812 23.1875 28.804688 24.953125 30.574219 C 26.722656 32.34375 28.765625 33.808594 30.539062 34.417969 L 32.601562 32.347656 C 33.007812 31.945312 33.507812 31.691406 34.035156 31.585938 C 34.566406 31.488281 35.125 31.539062 35.644531 31.761719 L 36.128906 31.957031 C 37.683594 32.609375 39.488281 33.34375 41.289062 34.078125 L 41.484375 34.15625 C 41.867188 34.316406 42.203125 34.542969 42.472656 34.835938 C 42.746094 35.128906 42.953125 35.480469 43.078125 35.875 C 43.203125 36.265625 43.238281 36.671875 43.195312 37.066406 C 43.148438 37.460938 43.007812 37.84375 42.785156 38.195312 C 42.265625 39.019531 41.703125 39.726562 41.109375 40.324219 C 38.746094 42.691406 35.804688 43.441406 32.769531 43.15625 C 29.820312 42.886719 26.792969 41.628906 24.125 39.953125 C 22.347656 38.839844 20.734375 37.53125 19.414062 36.214844 L 19.316406 36.117188 C 17.992188 34.792969 16.691406 33.179688 15.574219 31.402344 C 13.898438 28.738281 12.640625 25.703125 12.367188 22.757812 C 12.089844 19.71875 12.835938 16.785156 15.207031 14.414062 C 15.804688 13.820312 16.511719 13.257812 17.332031 12.738281 C 17.679688 12.515625 18.066406 12.382812 18.464844 12.332031 L 18.464844 12.335938 C 18.855469 12.285156 19.257812 12.320312 19.648438 12.453125 C 20.050781 12.578125 20.398438 12.78125 20.691406 13.050781 C 20.980469 13.320312 21.210938 13.65625 21.371094 14.042969 L 21.476562 14.3125 C 22.203125 16.089844 22.925781 17.867188 23.570312 19.394531 C 23.578125 19.402344 23.742188 19.828125 23.761719 19.878906 C 23.992188 20.402344 24.042969 20.960938 23.941406 21.488281 C 23.835938 22.023438 23.582031 22.519531 23.175781 22.921875 Z M 23.824219 31.707031 C 21.730469 29.613281 20.011719 27.113281 19.433594 24.96875 L 19.316406 24.527344 L 22.046875 21.789062 C 22.222656 21.617188 22.335938 21.410156 22.375 21.191406 C 22.417969 20.964844 22.394531 20.730469 22.296875 20.5 L 22.101562 20.007812 C 21.324219 18.160156 20.664062 16.535156 20.003906 14.914062 L 19.890625 14.636719 C 19.820312 14.476562 19.722656 14.332031 19.601562 14.21875 C 19.480469 14.109375 19.332031 14.019531 19.164062 13.964844 C 18.992188 13.914062 18.820312 13.894531 18.652344 13.914062 C 18.484375 13.941406 18.328125 13.996094 18.179688 14.089844 C 17.46875 14.535156 16.851562 15.023438 16.332031 15.546875 C 14.34375 17.535156 13.71875 20.027344 13.953125 22.613281 C 14.199219 25.289062 15.363281 28.082031 16.921875 30.550781 C 17.964844 32.21875 19.195312 33.734375 20.445312 34.984375 L 20.542969 35.082031 C 21.789062 36.335938 23.3125 37.558594 24.976562 38.605469 C 27.449219 40.160156 30.238281 41.324219 32.910156 41.574219 C 35.496094 41.8125 37.992188 41.183594 39.976562 39.191406 C 40.503906 38.671875 40.992188 38.054688 41.4375 37.347656 C 41.53125 37.199219 41.589844 37.039062 41.613281 36.871094 C 41.632812 36.707031 41.617188 36.535156 41.558594 36.363281 C 41.503906 36.191406 41.421875 36.042969 41.308594 35.921875 C 41.199219 35.800781 41.054688 35.703125 40.886719 35.636719 L 40.691406 35.558594 C 39.039062 34.882812 37.390625 34.214844 35.511719 33.421875 L 35.023438 33.226562 C 34.800781 33.132812 34.5625 33.109375 34.339844 33.152344 C 34.121094 33.195312 33.90625 33.304688 33.734375 33.476562 L 31.003906 36.214844 L 30.554688 36.09375 C 28.414062 35.515625 25.914062 33.792969 23.824219 31.707031 Z M 23.824219 31.707031 " fill-opacity="1" fill-rule="nonzero"/></svg>